<?xml version="1.0" encoding="utf-8"?>
<!-- Generator: Adobe Illustrator 20.1.0, SVG Export Plug-In . SVG Version: 6.00 Build 0)  -->
<svg version="1.1" id="Layer_1" xmlns="http://www.w3.org/2000/svg" xmlns:xlink="http://www.w3.org/1999/xlink" x="0px" y="0px"
	 viewBox="0 0 600 600" style="enable-background:new 0 0 600 600;" xml:space="preserve">
<style type="text/css">
	.st0{clip-path:url(#SVGID_2_);fill:#6FC9FE;}
	.st1{clip-path:url(#SVGID_2_);fill:#42AEFF;}
	.st2{clip-path:url(#SVGID_2_);}
	.st3{fill:#FFFFFF;}
	.st4{font-family:'Roboto-Bold';}
	.st5{font-size:46px;}
</style>
<image style="overflow:visible;" width="1222" height="532" xlink:href="../../../../../../Desktop/Screen Shot 2016-11-03 at 4.29.50 PM 1.png"  transform="matrix(0.5 0 0 0.5 730.4935 -112)">
</image>
<g>
	<defs>
		<rect id="SVGID_1_" x="-0.5" y="-0.5" width="601" height="601"/>
	</defs>
	<clipPath id="SVGID_2_">
		<use xlink:href="#SVGID_1_"  style="overflow:visible;"/>
	</clipPath>
	<polygon class="st0" points="-40,-40.5 -40,559.5 560.2,-40.7 	"/>
	<polygon class="st1" points="-123,-123.5 -123,476.5 477.2,-123.8 	"/>
	<g class="st2">
		<text transform="matrix(0.7071 -0.7071 0.7071 0.7071 96.1169 372.7465)" class="st3 st4 st5">Composition:</text>
	</g>
</g>
<g>
	
		<image style="overflow:visible;opacity:0.4;" width="180" height="182" xlink:href="B9E68074722513C9.png"  transform="matrix(1 0 0 1 -14 66)">
	</image>
	<g>
		<g>
			<path class="st3" d="M61.4,165.2c-0.6,0.2-1.2,0.6-1.8,1.1c-0.5,0.5-0.8,1-1,1.6c-0.1,0.6-0.2,1.2,0,1.8c0.1,0.6,0.4,1.2,0.8,1.9
				c0.4,0.6,0.9,1.2,1.5,1.8l0.3,0.3c0.6,0.6,1.2,1.1,1.8,1.4c0.6,0.4,1.2,0.6,1.8,0.8c0.6,0.1,1.2,0.1,1.8,0c0.6-0.1,1.1-0.5,1.6-1
				c0.6-0.6,1-1.2,1.2-1.8c0.2-0.6,0.2-1.3,0-1.9l-5.9-5.9C62.7,165,62,165,61.4,165.2z"/>
			<path class="st3" d="M46.4,127.4c-16.3,16.3-16.4,42.8,0,59.2s42.9,16.3,59.2,0s16.3-42.9,0-59.2S62.6,111.1,46.4,127.4z
				 M76.6,170.9c1,1,1.7,2,2.1,3.1c0.4,1.1,0.6,2.2,0.5,3.3c-0.1,1.1-0.4,2.2-1,3.3c-0.6,1.1-1.3,2.1-2.4,3.1
				c-0.4,0.4-0.9,0.9-1.5,1.2c-0.6,0.4-1.2,0.7-1.8,1c-0.7,0.3-1.3,0.5-2,0.7c-0.7,0.1-1.4,0.2-2.1,0.1l-0.6-4
				c0.9,0.1,1.8-0.1,2.7-0.4c0.8-0.3,1.6-0.8,2.3-1.5c1-1,1.5-2,1.5-3.1c0-1.1-0.5-2.1-1.4-3.1l-0.8-0.8c0.1,0.9-0.1,1.7-0.4,2.6
				c-0.3,0.8-0.8,1.6-1.6,2.3c-0.9,0.9-1.8,1.5-2.9,1.8c-1.1,0.3-2.1,0.4-3.3,0.3c-1.1-0.1-2.3-0.5-3.4-1.1
				c-1.1-0.6-2.2-1.4-3.2-2.4l-0.3-0.3c-1.1-1.1-1.9-2.2-2.5-3.3c-0.6-1.1-1-2.3-1.1-3.4c-0.1-1.1,0-2.2,0.3-3.3c0.4-1,1-2,1.9-2.9
				c0.8-0.8,1.7-1.4,2.5-1.7c0.9-0.3,1.7-0.4,2.7-0.3l-1.2-1.5l3.4-3.4L76.6,170.9z M71,143.4c-0.4,0.2-0.8,0.6-1.3,1
				c-0.7,0.7-1,1.4-1.1,2.1c0,0.7,0.2,1.3,0.9,2l1.2,1.2l2.8-2.8l2.8,2.8l-2.8,2.8l11.3,11.3l-3.8,3.8l-11.3-11.3l-2.1,2.1l-2.8-2.8
				l2.1-2.1l-1.2-1.2c-0.8-0.8-1.4-1.6-1.8-2.5c-0.4-0.9-0.6-1.7-0.5-2.6c0-0.9,0.2-1.7,0.7-2.6c0.4-0.9,1-1.7,1.8-2.5
				c0.3-0.3,0.7-0.6,1.1-0.9c0.4-0.3,0.7-0.5,1.1-0.7L71,143.4z M96.5,151.8c-0.2,0.4-0.5,0.8-0.8,1.3c-0.3,0.4-0.7,0.9-1.2,1.4
				c-0.6,0.6-1.2,1.1-1.9,1.4c-0.6,0.3-1.3,0.5-2,0.5c-0.7,0-1.4-0.1-2.1-0.5c-0.7-0.3-1.5-0.9-2.2-1.6l-7.4-7.4l-2.1,2.1l-2.8-2.8
				l2.1-2.1l-3.5-3.5l3.8-3.8l3.5,3.5l2.4-2.4l2.8,2.8l-2.4,2.4l7,7c0.3,0.3,0.6,0.5,0.8,0.6c0.3,0.1,0.5,0.2,0.7,0.2
				c0.2,0,0.5-0.1,0.7-0.2c0.2-0.1,0.4-0.3,0.7-0.6c0.2-0.2,0.4-0.4,0.6-0.6c0.2-0.2,0.3-0.4,0.4-0.6L96.5,151.8z M102.5,146
				l-3.8,3.8l-14.1-14.1l3.8-3.8L102.5,146z M85.6,129c0.1,0.3,0.2,0.7,0.2,1c0,0.4-0.1,0.7-0.3,1.1c-0.2,0.4-0.4,0.7-0.7,1
				c-0.3,0.3-0.7,0.6-1,0.7c-0.4,0.2-0.7,0.3-1.1,0.3c-0.4,0-0.7-0.1-1-0.2c-0.3-0.1-0.7-0.4-0.9-0.6c-0.6-0.6-0.8-1.2-0.8-2
				c0-0.7,0.3-1.4,1-2.1c0.3-0.3,0.7-0.6,1-0.7c0.4-0.2,0.7-0.3,1.1-0.3c0.4,0,0.7,0.1,1,0.2c0.3,0.1,0.6,0.3,0.9,0.6
				C85.3,128.4,85.5,128.7,85.6,129z"/>
			<path class="st3" d="M116.7,115.3c-3.5-1-6.3-3.4-8.1-6.6c-2.8-5-8.4-7.8-14.1-7c-3.6,0.6-7.1-0.3-10.1-2.5
				c-4.7-3.3-10.9-3.5-15.7-0.3c-2.9,2-6.7,2.9-10.2,2.2c-5.6-1-11.3,1.6-14.3,6.7c-1.8,3.1-4.7,5.4-8.2,6.3
				c-5.5,1.5-9.5,6.5-9.9,12.2c-0.2,3.6-1.9,6.9-4.6,9.3c-4.4,3.8-5.8,10-3.7,15.3c1.3,3.4,1.3,7-0.1,10.4c-2.3,5.3-1,11.4,3.3,15.3
				c2.7,2.5,4.3,5.8,4.4,9.3c0.3,6,4.2,11,9.7,12.8c3.5,1,6.3,3.4,8.1,6.6c2.8,5,8.4,7.8,14.1,7c3.6-0.6,7.1,0.3,10.1,2.5
				c4.7,3.3,10.9,3.5,15.7,0.3c2.9-2,6.7-2.9,10.2-2.2c5.6,1,11.3-1.6,14.3-6.7c1.8-3.1,4.7-5.4,8.2-6.3c5.5-1.5,9.5-6.5,9.9-12.2
				c0.2-3.6,1.9-6.9,4.6-9.3c4.4-3.8,5.8-10,3.7-15.3c-1.3-3.4-1.3-7,0.1-10.4c2.3-5.3,1-11.4-3.3-15.3c-2.7-2.5-4.3-5.8-4.4-9.3
				C126.1,122.1,122.2,117,116.7,115.3z M109.7,190.8c-18.7,18.7-48.9,18.7-67.6,0s-18.7-48.9,0-67.6s48.9-18.7,67.6,0
				S128.4,172.1,109.7,190.8z"/>
		</g>
	</g>
</g>
</svg>
