<?xml version="1.0" encoding="utf-8"?>
<!-- Generator: Adobe Illustrator 20.1.0, SVG Export Plug-In . SVG Version: 6.00 Build 0)  -->
<svg version="1.1" id="Layer_1" xmlns="http://www.w3.org/2000/svg" xmlns:xlink="http://www.w3.org/1999/xlink" x="0px" y="0px"
	 viewBox="0 0 95 95.7" style="enable-background:new 0 0 95 95.7;" xml:space="preserve">
<style type="text/css">
	.st0{enable-background:new    ;}
	.st1{fill:#FFFFFF;}
</style>
<text transform="matrix(1 0 0 1 -2.5 112.8494)" style="font-family:'HelveticaNeue-Bold'; font-size:5px;">Created by Guilhem</text>
<text transform="matrix(1 0 0 1 -2.5 117.8494)" style="font-family:'HelveticaNeue-Bold'; font-size:5px;">from the Noun Project</text>
<g>
	<path class="st1" d="M35.5,44.5c-0.4-0.2-0.9-0.3-1.6-0.3c-0.5,0-1,0.1-1.3,0.3c-0.4,0.2-0.7,0.5-1,0.9c-0.3,0.4-0.4,0.9-0.6,1.4
		c-0.1,0.5-0.2,1.1-0.2,1.7v0.3c0,0.6,0.1,1.2,0.2,1.7c0.1,0.5,0.3,1,0.6,1.4c0.2,0.4,0.6,0.7,0.9,0.9c0.4,0.2,0.8,0.3,1.3,0.3
		c0.6,0,1.2-0.1,1.6-0.4c0.4-0.2,0.8-0.6,1-1v-6.2C36.3,45.1,36,44.8,35.5,44.5z"/>
	<path class="st1" d="M47.5,16.7c-17.1,0-31.1,13.9-31.1,31.1s14,31.1,31.1,31.1s31.1-14,31.1-31.1S64.6,16.7,47.5,16.7z M40.5,55.5
		c0,1-0.2,1.9-0.5,2.7c-0.3,0.8-0.8,1.4-1.5,2c-0.6,0.5-1.4,1-2.2,1.2c-0.9,0.3-1.8,0.4-2.9,0.4c-0.5,0-0.9,0-1.4-0.1
		c-0.5-0.1-1-0.2-1.5-0.4c-0.5-0.2-1-0.4-1.4-0.7c-0.4-0.3-0.8-0.6-1.1-1l1.8-2.4c0.5,0.5,1,0.9,1.6,1.2c0.6,0.3,1.3,0.4,2,0.4
		c1,0,1.9-0.3,2.4-0.8c0.6-0.6,0.9-1.4,0.9-2.4v-0.8c-0.4,0.5-1,0.9-1.5,1.1c-0.6,0.3-1.3,0.4-2.1,0.4c-0.9,0-1.7-0.2-2.5-0.6
		c-0.7-0.4-1.4-0.9-1.9-1.6c-0.5-0.7-0.9-1.5-1.2-2.4c-0.3-0.9-0.4-1.9-0.4-3v-0.3c0-1.1,0.1-2.1,0.4-3.1c0.3-0.9,0.7-1.7,1.2-2.4
		c0.5-0.7,1.1-1.2,1.9-1.5c0.7-0.4,1.6-0.5,2.5-0.5c0.9,0,1.6,0.1,2.2,0.4c0.6,0.3,1.1,0.7,1.6,1.2l0.2-1.4h3.6V55.5z M52,38.1
		C51.7,38,51.3,38,50.8,38c-0.7,0-1.3,0.2-1.6,0.5c-0.4,0.3-0.6,0.8-0.6,1.5v1.3h2.9v2.9h-2.9V56h-4V44.1h-2.2v-2.9h2.2V40
		c0-0.8,0.1-1.6,0.4-2.2c0.2-0.6,0.6-1.2,1.1-1.6c0.5-0.4,1-0.8,1.7-1c0.7-0.2,1.4-0.3,2.3-0.3c0.4,0,0.7,0,1,0.1
		c0.3,0.1,0.7,0.1,1,0.2L52,38.1z M61,56c-0.3,0.1-0.7,0.2-1.1,0.3c-0.4,0.1-0.8,0.1-1.3,0.1c-0.6,0-1.2-0.1-1.8-0.2s-1-0.4-1.3-0.8
		c-0.4-0.3-0.7-0.8-0.9-1.4c-0.2-0.6-0.3-1.2-0.3-2v-7.8h-2.2v-2.9h2.2v-3.6h4v3.6h2.5v2.9h-2.5v7.4c0,0.3,0,0.6,0.1,0.8
		c0.1,0.2,0.2,0.4,0.3,0.5c0.1,0.1,0.3,0.2,0.5,0.2c0.2,0,0.4,0.1,0.7,0.1c0.2,0,0.5,0,0.6,0c0.2,0,0.4,0,0.5-0.1V56z M67.2,56h-4
		V41.2h4V56z M67.3,38.2c-0.1,0.3-0.3,0.5-0.4,0.6c-0.2,0.2-0.4,0.3-0.7,0.4c-0.3,0.1-0.6,0.2-0.9,0.2c-0.3,0-0.6,0-0.9-0.2
		c-0.3-0.1-0.5-0.2-0.7-0.4c-0.2-0.2-0.3-0.4-0.4-0.6C63.1,38,63,37.7,63,37.4c0-0.6,0.2-1.1,0.6-1.5s0.9-0.6,1.6-0.6
		c0.3,0,0.6,0.1,0.9,0.2c0.3,0.1,0.5,0.2,0.7,0.4c0.2,0.2,0.3,0.4,0.4,0.6c0.1,0.3,0.2,0.5,0.2,0.8C67.4,37.7,67.4,38,67.3,38.2z"/>
	<path class="st1" d="M90.8,47.3c-1.3-2.4-1.5-5.1-0.8-7.7c1.2-4.1-0.3-8.5-3.7-11.1c-2.2-1.6-3.6-3.9-4-6.6
		c-0.7-4.2-3.9-7.6-8.1-8.4c-2.6-0.5-5-2-6.5-4.2c-2.4-3.5-6.8-5.1-11-4c-2.6,0.7-5.3,0.4-7.6-1c-3.7-2.1-8.4-1.6-11.6,1.2
		c-2,1.8-4.6,2.6-7.3,2.5c-4.3-0.3-8.3,2.2-10,6.1c-1.1,2.5-3,4.4-5.5,5.4c-4,1.6-6.5,5.5-6.3,9.8c0.1,2.7-0.8,5.3-2.6,7.2
		c-3,3.3-3.6,8-1.6,11.8C5.5,50.7,5.7,53.4,5,56c-1.2,4.1,0.3,8.5,3.7,11.1c2.2,1.6,3.6,3.9,4,6.6c0.7,4.2,3.9,7.6,8.1,8.4
		c2.6,0.5,5,2,6.5,4.2c2.4,3.5,6.8,5.1,11,4c2.6-0.7,5.3-0.4,7.6,1c3.7,2.1,8.4,1.6,11.6-1.2c2-1.8,4.6-2.6,7.3-2.5
		c4.3,0.3,8.3-2.2,10-6.1c1.1-2.5,3-4.4,5.5-5.4c4-1.6,6.5-5.5,6.3-9.8c-0.1-2.7,0.8-5.3,2.6-7.2C92.2,55.8,92.8,51.1,90.8,47.3z
		 M47.5,83.3C27.9,83.3,12,67.4,12,47.8s15.9-35.5,35.5-35.5S83,28.2,83,47.8S67.1,83.3,47.5,83.3z"/>
</g>
</svg>
