<?xml version="1.0" encoding="utf-8"?>
<!-- Generator: Adobe Illustrator 20.1.0, SVG Export Plug-In . SVG Version: 6.00 Build 0)  -->
<svg version="1.1" id="Layer_1" xmlns="http://www.w3.org/2000/svg" xmlns:xlink="http://www.w3.org/1999/xlink" x="0px" y="0px"
	 viewBox="0 0 600 400" style="enable-background:new 0 0 600 400;" xml:space="preserve">
<style type="text/css">
	.st0{fill:#CCCACA;}
	.st1{fill:#8B8784;}
	.st2{fill:#E0CECA;}
	.st3{fill:#EFE6BF;}
	.st4{fill:none;}
	.st5{fill:#545251;}
	.st6{font-family:'Roboto-Regular';}
	.st7{font-size:14px;}
	.st8{fill:#A5C4D0;}
	.st9{font-family:'Yellowtail';}
	.st10{font-size:22px;}
	.st11{fill:#C01200;}
</style>
<g>
	<polygon class="st0" points="569.2,10.9 569.2,356.1 3.6,356.1 3.6,392 599.3,392 599.3,10.9 	"/>
</g>
<image style="overflow:visible;" width="624" height="400" xlink:href="67BC591F30D28987.png"  transform="matrix(1 0 0 1 -12 0)">
</image>
<g>
	<path class="st1" d="M211.4,61.4c0-0.1,0.1-0.3,0.1-0.3c0.3,0.1,0.9,0.1,1.4,0.1c1.1,0,1.8-0.2,2.5-0.5c1.6-0.9,2.2-2.6,2.2-4.6
		c0-3.3-1.6-5.7-5.7-5.7c-0.4,0-1.2,0-1.5,0.2c-0.1,0.1-0.2,0.2-0.3,0.5c0,0.8-0.1,2.7-0.1,8.5c0,4.1,0,6.8,0,8.6
		c0.1,1.3,0.3,1.6,1.3,1.8c0.5,0.1,1.3,0.2,2.1,0.3c0.1,0.1,0.1,0.9,0,1c-1,0-3.5-0.1-4.9-0.1c-1.6,0-3.9,0.1-4.7,0.1
		c-0.1-0.1-0.1-0.9,0-1c0.8-0.1,1.5-0.2,1.9-0.3c0.9-0.3,1-0.6,1.1-2.1c0.1-1.2,0.1-4.1,0.1-8c0-4.1,0-6.5,0-7.6
		c-0.1-1.3-0.3-1.7-1.3-1.9c-0.5-0.1-1-0.2-1.7-0.3c-0.1-0.2,0-0.9,0.1-1c0.6,0,2.5,0.1,4.2,0.1c2.1,0,3.7-0.1,5.8-0.1
		c1.2,0,3.4,0.2,4.7,1.4c1.2,0.9,2.2,2.5,2.2,4.8c0,3.3-1.9,5.3-3.8,6.2c-1.2,0.6-2.5,0.9-3.7,0.9c-0.6,0-1.1,0-1.5-0.2
		C211.7,62.1,211.5,61.6,211.4,61.4z"/>
	<path class="st1" d="M227.3,68.6c-2.1-2.4-3.1-5.4-3.1-8.6c0-2.6,0.8-4.9,2.2-6.9c2-2.7,5.8-4.5,9.5-4.5c7.3,0,11,5.3,11,11.1
		c0,3.1-0.7,5.4-2.2,7.4c-2.2,3.1-5.8,4.7-9.4,4.7C231.9,71.9,229.2,70.6,227.3,68.6z M240.5,69c2.2-1.8,3-4.7,3-8
		c0-3.9-1.3-7.6-4.1-9.5c-1.3-0.9-2.8-1.4-4.7-1.4c-1.2,0-2.3,0.3-3.2,0.8c-2.6,1.5-3.8,4.7-3.8,8.4c0,3.7,1.4,7.8,4.5,9.8
		c1.2,0.8,2.6,1.2,4.5,1.2C238.2,70.3,239.6,69.8,240.5,69z"/>
	<path class="st1" d="M254,69.6c0.9,0.7,2.1,1,3.5,1c1.8,0,3.8-1.1,3.8-3.7c0-2.4-1.5-3.5-4.7-5.4c-3.2-1.8-5.3-3.6-5.3-6.8
		c0-3.8,3.1-6,7-6c2.5,0,3.9,0.5,5.4,0.6c-0.2,1.2-0.5,3.2-0.6,4.9c-0.1,0.2-0.9,0.2-1,0c-0.2-2.1-0.5-3.1-1.4-3.7
		c-0.8-0.6-1.8-0.7-2.9-0.7c-2.5,0-3.7,1.9-3.7,3.6c0,2,0.9,3,2.4,4.1c1.4,0.9,3.2,1.8,4.4,2.5c1.9,1.2,3.4,2.7,3.4,5.3
		c0,3.5-2.9,6.6-7.9,6.6c-2.1,0-4.3-0.7-5.1-1.1c-0.3-0.5-0.9-4.1-1-5.4c0.1-0.2,0.9-0.4,1.1-0.3C252,67.3,252.7,68.7,254,69.6z"/>
	<path class="st1" d="M281.7,71.3c-1,0-3.1-0.1-5.3-0.1c-2.6,0-4.5,0.1-5.4,0.1c-0.1-0.2-0.1-0.9,0-1c1.1-0.1,2-0.2,2.5-0.4
		c1.1-0.2,1.3-0.9,1.4-2.6C275,64.6,275,56.9,275,51c0-0.1-0.1-0.3-0.3-0.3c-0.6,0-3.2,0-4.6,0c-0.6,0-1.1,0.3-1.5,1
		c-0.4,0.7-0.9,2-1.4,3.3c-0.1,0.1-1-0.1-1.1-0.3c0.3-1.5,0.6-4.4,0.7-5.9c0-0.1,0.3-0.2,0.4-0.1c0.6,0.3,1.6,0.5,2.9,0.5h13.2
		c1.6,0,2.4-0.1,3.5-0.5c0.1,0,0.3,0.1,0.4,0.2c-0.4,1.2-0.6,4.1-0.8,6c-0.1,0.2-1,0.2-1.1,0c-0.1-1.3-0.3-2.5-0.6-3.2
		c-0.3-0.7-0.7-1-1.4-1c-1.7,0-4.2,0-5,0c-0.1,0-0.2,0.2-0.2,0.3c0,5.2,0,15.1,0.1,16.9c0.1,1.3,0.4,1.7,1.2,1.9
		c0.6,0.2,1.2,0.2,2.4,0.4C281.9,70.5,281.9,71.2,281.7,71.3z"/>
	<path class="st1" d="M319.8,50.7c-1.2-0.6-2.7-0.8-4.4-0.8c-5.2,0-8.1,3.8-8.1,9.8c0,5.7,3.2,10.5,9.5,10.5c1.5,0,3-0.4,3.9-1.2
		c0.9-0.7,1.7-1.9,2.7-3.5c0.2,0,0.8,0.3,0.9,0.6c-0.4,1.5-1.9,4.3-2.7,4.8c-1,0.4-3.3,0.9-5.5,0.9c-8,0-12.4-4.4-12.4-11.8
		c0-3.9,1.7-7.7,5.7-9.8c1.9-1,4.2-1.6,7.2-1.6c3,0,5.4,0.6,7,0.7c-0.2,1.2-0.5,3.9-0.6,5.5c-0.1,0.1-1.1,0.2-1.1,0.1
		C321.6,52,321.2,51.3,319.8,50.7z"/>
	<path class="st1" d="M329.3,67c1.8-4.3,5.2-13.4,6-15.7c0.3-0.7,0.5-1.5,0.6-2c0.1,0,0.6,0,1.2,0c0.7,0,1.1,0,1.2,0
		c0.1,0.5,0.3,1.2,0.6,1.9c0.7,2,4.7,13.3,5.9,16.3c1,2.4,1.3,2.6,3.9,2.9c0.1,0.1,0,0.9-0.1,1c-0.9,0-2.7-0.1-4.4-0.1
		c-1.7,0-3.9,0.1-4.7,0.1c-0.1-0.1-0.2-0.9,0-1c0.8-0.1,1.4-0.2,2-0.4c0.5-0.2,0.5-0.6,0.4-0.9c-0.4-1.5-1.5-4.5-2.1-6.1
		c0-0.1-0.2-0.2-0.3-0.2c-0.5,0-1.7,0-3.4,0c-2.3,0-2.5,0-3,0c-0.1,0-0.3,0.2-0.4,0.3c-0.7,1.9-1.9,4.9-1.9,5.8c0,0.6,0,1,1.1,1.3
		c0.4,0.1,1,0.2,1.7,0.3c0.1,0.1,0,0.9-0.1,1c-0.7,0-2.6-0.1-4.6-0.1c-2,0-3.1,0.1-3.8,0.1c-0.1-0.1-0.1-0.9,0-1
		C327.7,70,328.1,69.7,329.3,67z M336.1,53c-0.6,1.8-2.1,5.8-2.7,7.7c0,0.1,0,0.2,0.1,0.3c0.4,0,1.5,0,2.9,0c0.9,0,2,0,2.4,0
		c0.1,0,0.2-0.1,0.1-0.3c-0.7-2.2-2.1-6.2-2.6-7.7C336.2,52.9,336.1,52.9,336.1,53z"/>
	<path class="st1" d="M349.1,49.2c0.9,0,3,0.1,4.1,0.1c2.6,0,4.5-0.1,5.9-0.1c4.2,0,6.4,2.5,6.4,5.5c0,3-1.9,4.8-4.1,5.7
		c-0.1,0.1-0.1,0.2-0.1,0.2c1.2,2,4.1,5.9,5.8,7.7c1.5,1.5,2,1.7,4.1,2c0.1,0.1,0,0.9-0.2,1c-1.5,0.1-4.4,0-5.7-0.7
		c-0.5-0.3-1.1-0.7-1.7-1.4c-1.4-1.6-3.5-5.2-4.9-7.1c-0.2-0.4-0.6-0.5-0.9-0.5c-0.5-0.1-2,0-2.5,0c-0.1,0-0.1,0.2-0.1,0.2
		c0,2,0,5.3,0.1,6.5c0.1,1.2,0.3,1.5,1.1,1.7c0.5,0.1,1.2,0.2,2,0.3c0.2,0.1,0.1,0.9-0.1,1c-0.7,0-2.4-0.1-4.7-0.1
		c-2.3,0-3.9,0.1-4.5,0.1c-0.2-0.1-0.2-0.9,0-1c0.8-0.1,1.4-0.2,1.8-0.3c0.9-0.2,1.1-0.6,1.2-2c0-0.8,0.1-5.7,0.1-7.6
		c0-3.6,0-7.2,0-8.3c0-1-0.3-1.4-1.2-1.6c-0.5-0.1-1.2-0.2-1.9-0.3C348.9,50,349,49.2,349.1,49.2z M355.5,50.6
		c-0.1,0.1-0.3,0.4-0.3,0.5c-0.1,1.2-0.1,6.1-0.1,8.8c0,0.1,0.1,0.2,0.2,0.2c2.4,0.1,3.9,0,4.6-0.3c1.1-0.5,2.3-1.8,2.3-4.1
		c0-3.4-1.7-5.3-5.5-5.3C356.5,50.4,355.9,50.4,355.5,50.6z"/>
	<path class="st1" d="M371.1,49.2c0.8,0,3.3,0.1,4.3,0.1c2.1,0,3.6-0.1,6.9-0.1c3.1,0,5.7,0.9,7.6,2.5c2.3,2,3.4,4.8,3.4,8.1
		c0,4.9-2.3,7.8-4.6,9.3c-2.2,1.6-4.9,2.4-8.5,2.4c-2.1,0-4.7-0.1-7.8-0.1h-1.8c-0.1-0.2-0.1-0.9,0-1c1-0.1,1.7-0.2,2.3-0.4
		c0.6-0.2,1.1-0.5,1.2-1.7c0.1-2.2,0.1-5.2,0.1-8.3c0-2.1,0-6.3-0.1-7.6c-0.1-1.2-0.4-1.6-1.3-1.8c-0.5-0.1-1.1-0.2-1.9-0.3
		C370.9,50,371,49.3,371.1,49.2z M378.1,69.2c0.7,0.6,2.3,0.8,3.9,0.8c1.7,0,3.6-0.4,5.2-1.9c1.7-1.6,2.8-3.9,2.8-7.8
		c0-3.6-1.3-6.6-4.1-8.5c-1.6-1.1-3.7-1.5-6.3-1.5c-0.7,0-1.5,0-1.8,0.2c-0.1,0.1-0.4,0.3-0.4,0.6c-0.1,0.8,0,5.7,0,8.7
		c0,3.1,0,7.1,0.1,7.9C377.5,68.3,377.6,68.9,378.1,69.2z"/>
</g>
<g>
	<rect x="96.2" y="87.4" class="st1" width="416.4" height="0.9"/>
</g>
<g>
	<rect x="120" y="94.9" class="st1" width="364.4" height="0.9"/>
</g>
<g>
	<rect x="150.1" y="102.3" class="st1" width="296.7" height="0.9"/>
</g>
<g>
	<rect x="322.6" y="210.2" class="st1" width="237.6" height="0.9"/>
</g>
<g>
	<rect x="322.5" y="264.8" class="st1" width="237.6" height="0.9"/>
</g>
<g>
	<rect x="298" y="109.5" class="st1" width="0.9" height="263.4"/>
</g>
<rect x="607.8" y="106.7" class="st2" width="20" height="20"/>
<rect x="611.5" y="170" class="st3" width="20" height="20"/>
<rect x="29.7" y="143" class="st4" width="257.5" height="233.1"/>
<text transform="matrix(1 0 0 1 68.922 153.4854)"><tspan x="0" y="0" class="st5 st6 st7">How did you get here? Perhaps you </tspan><tspan x="-4.4" y="21" class="st5 st6 st7">found yourself in a strange land and </tspan><tspan x="-1.5" y="42" class="st5 st6 st7">you&apos;re thinking of home. Maybe you </tspan><tspan x="-35.5" y="63" class="st5 st6 st7">visited an unusual site and you&apos;re in need </tspan><tspan x="-17.2" y="84" class="st5 st6 st7">of a keepsake. Or you could just be an </tspan><tspan x="2.8" y="105" class="st5 st6 st7">avid supporter of the United States </tspan><tspan x="-17.8" y="126" class="st5 st6 st7">Postal Service. Follow the subsequent </tspan><tspan x="-25.6" y="147" class="st5 st6 st7">steps to craft a card. Your postcard will </tspan><tspan x="-38" y="168" class="st5 st6 st7">then travel from the internet to recipient’s </tspan><tspan x="91.2" y="189" class="st5 st6 st7">doorstep with haste.</tspan></text>
<rect x="617.8" y="219.1" class="st8" width="20" height="20"/>
<g>
	<text transform="matrix(1 0 0 1 173.5457 130.3933)" class="st5 st6 st7">Greetings traveler!</text>
</g>
<g>
	<text transform="matrix(1 0 0 1 376.608 203.4501)" class="st1 st9 st10">Creator of Cards</text>
</g>
<g>
	<text transform="matrix(1 0 0 1 394.9554 258.7835)" class="st1 st9 st10">The Internet</text>
</g>
<g>
	<g>
		<path class="st11" d="M488.4,66.6l2.3,1.2l-0.1,1l-7.4-3.8l0.2-1.2l8.2-1.5l-0.2,1.1l-2.6,0.5L488.4,66.6z M488,64l-2.4,0.4
			c-0.5,0.1-1,0.2-1.5,0.2l0,0c0.4,0.2,0.9,0.4,1.4,0.6l2.2,1.1L488,64z"/>
		<path class="st11" d="M485.3,58.4c0.3,0.1,0.5,0.4,0.4,0.8c-0.1,0.3-0.4,0.5-0.8,0.4c-0.3-0.1-0.5-0.4-0.4-0.8
			C484.6,58.5,484.9,58.3,485.3,58.4z M491.9,61.5l-5.4-1.6l0.3-1l5.4,1.6L491.9,61.5z"/>
		<path class="st11" d="M489.1,57.7c-0.6-0.2-1.2-0.4-1.7-0.6l0.3-0.8l1,0.4l0,0c-0.6-0.5-0.8-1.3-0.6-1.9c0-0.1,0.1-0.2,0.1-0.3
			l0.9,0.4c-0.1,0.1-0.1,0.2-0.2,0.3c-0.3,0.7,0.1,1.4,0.7,1.8c0.1,0.1,0.3,0.2,0.4,0.2l2.8,1.1l-0.4,0.9L489.1,57.7z"/>
		<path class="st11" d="M497.9,44.4c-0.9-0.7-1.9-1.5-2.7-2.1l0,0c0.5,0.8,1.1,1.7,1.6,2.7l2,3.5l-0.5,0.6l-3.7-1.5
			c-1.1-0.4-2.1-0.9-2.9-1.3l0,0c0.7,0.7,1.7,1.6,2.6,2.4l2.4,2.4l-0.6,0.7l-5.6-5.5l0.8-1l3.8,1.5c1,0.4,1.8,0.7,2.5,1.1l0,0
			c-0.5-0.7-1-1.4-1.5-2.4l-2-3.5l0.8-1l6.3,4.8l-0.6,0.8L497.9,44.4z"/>
		<path class="st11" d="M504.9,43.2l-0.5-0.5l0,0c0,0.5-0.2,1.2-0.9,1.7c-0.9,0.7-1.9,0.4-2.4-0.3c-0.8-1.1-0.3-2.4,1.4-3.7
			l-0.1-0.1c-0.3-0.4-0.9-1-1.8-0.3c-0.4,0.3-0.8,0.8-0.9,1.2l-0.6-0.4c0.2-0.5,0.6-1.1,1.2-1.5c1.4-1,2.4-0.4,3.1,0.6l1.3,1.7
			c0.3,0.4,0.6,0.8,0.9,1L504.9,43.2z M503,41c-0.9,0.7-1.8,1.6-1.1,2.5c0.4,0.5,0.9,0.5,1.4,0.2c0.6-0.4,0.7-1.1,0.5-1.6
			c0-0.1-0.1-0.2-0.2-0.3L503,41z"/>
		<path class="st11" d="M504.1,35.1c0.2,0.3,0.1,0.7-0.2,0.9c-0.3,0.2-0.7,0.1-0.9-0.2c-0.2-0.3-0.1-0.7,0.2-0.9
			C503.6,34.7,503.9,34.8,504.1,35.1z M506.8,41.9l-2.8-4.9l0.9-0.5l2.8,4.9L506.8,41.9z"/>
		<path class="st11" d="M505.4,33.2l0.9-0.4l3.6,7.5l-0.9,0.4L505.4,33.2z"/>
		<path class="st11" d="M520.1,29.7l-0.9,1.6l0,0l1.7-0.5l0.1,0.8l-1.8,0l0,0l1.3,1.3l-0.7,0.5l-0.9-1.5l0,0l-0.5,1.7l-0.7-0.3
			l0.9-1.6l0,0l-1.7,0.4l-0.1-0.8l1.7,0l0,0l-1.3-1.3l0.7-0.5l0.9,1.5l0,0l0.5-1.7L520.1,29.7z"/>
		<path class="st11" d="M525.7,29.6l-1.1,1.5l0,0l1.8-0.2l0,0.8l-1.8-0.2l0,0l1.1,1.4l-0.7,0.4l-0.7-1.6l0,0l-0.8,1.6l-0.7-0.4
			l1.1-1.4l0,0l-1.7,0.2l0-0.8l1.7,0.2l0,0l-1.1-1.4l0.7-0.4l0.7,1.6l0,0l0.7-1.6L525.7,29.6z"/>
		<path class="st11" d="M531.4,30.3l-1.3,1.3l0,0l1.8,0l-0.1,0.8l-1.7-0.5l0,0l0.9,1.6l-0.8,0.3l-0.4-1.7l0,0l-1,1.5l-0.6-0.5
			l1.3-1.2l0,0l-1.7,0l0.1-0.8l1.7,0.5l0,0l-0.9-1.6l0.8-0.3l0.5,1.7l0,0l1-1.5L531.4,30.3z"/>
		<path class="st11" d="M559,49.4c0.3,0.4,0.7,0.9,1,1.7c0.5,0.9,0.6,1.7,0.4,2.3c-0.1,0.6-0.5,1.1-1.1,1.4
			c-0.6,0.3-1.2,0.4-1.8,0.2c-0.8-0.2-1.4-0.9-1.9-1.7c-0.1-0.3-0.3-0.5-0.3-0.8l-2.8,1.5l-0.5-0.9L559,49.4z M556.1,52
			c0.1,0.2,0.2,0.5,0.3,0.8c0.6,1.1,1.4,1.5,2.4,1c0.9-0.5,1-1.4,0.5-2.4c-0.2-0.4-0.4-0.7-0.5-0.8L556.1,52z"/>
		<path class="st11" d="M560.5,63.6c-2.6,0.7-4.4-0.5-5-2.4c-0.6-2,0.6-3.9,2.9-4.5c2.4-0.7,4.4,0.4,5,2.4
			C564,61.1,562.7,62.9,560.5,63.6z M558.7,57.7c-1.6,0.5-2.8,1.8-2.4,3.3c0.4,1.6,2.1,2,3.8,1.5c1.5-0.4,2.9-1.7,2.4-3.3
			C562.1,57.6,560.4,57.2,558.7,57.7z"/>
		<path class="st11" d="M557.9,65.4c-0.2,0.5-0.4,1.2-0.4,1.9c0.1,1,0.7,1.6,1.5,1.5c0.7-0.1,1.1-0.5,1.4-1.6c0.4-1.3,1-2.2,2.1-2.3
			c1.2-0.1,2.2,0.8,2.3,2.4c0.1,0.8-0.1,1.4-0.2,1.8l-0.9-0.2c0.1-0.3,0.3-0.8,0.3-1.5c-0.1-1.1-0.8-1.4-1.3-1.4
			c-0.7,0.1-1.1,0.6-1.4,1.7c-0.4,1.4-1,2.1-2.1,2.2c-1.2,0.1-2.3-0.7-2.5-2.6c-0.1-0.8,0.1-1.6,0.3-2L557.9,65.4z"/>
		<path class="st11" d="M563.8,73.2l0.2-2.4l0.9,0.1l-0.5,5.8l-0.9-0.1l0.2-2.4l-7-0.6l0.1-1L563.8,73.2z"/>
		<path class="st11" d="M556.4,81.4c-0.4,0.3-0.9,0.8-1.2,1.5c-0.4,1-0.1,1.7,0.6,2c0.7,0.3,1.2,0.1,2-0.8c0.9-1,1.8-1.5,2.9-1.1
			c1.1,0.5,1.6,1.8,1,3.2c-0.3,0.7-0.7,1.2-1,1.5l-0.7-0.6c0.2-0.2,0.6-0.6,0.9-1.2c0.4-1,0-1.6-0.5-1.8c-0.7-0.3-1.2,0-2,0.9
			c-1,1-1.8,1.4-2.9,1c-1.1-0.5-1.8-1.7-1-3.4c0.3-0.7,0.8-1.4,1.2-1.7L556.4,81.4z"/>
		<path class="st11" d="M553.9,91.5l1.6-2.6l-2.4-1.5l-1.8,2.9l-0.7-0.5l2.3-3.8l6.7,4.2l-2.3,3.6l-0.7-0.5l1.7-2.8l-2.1-1.3
			l-1.6,2.6L553.9,91.5z"/>
		<path class="st11" d="M555.8,95.8c-0.3,0.5-0.7,1-1.2,1.6c-0.7,0.8-1.3,1.2-2,1.3c-0.5,0.1-1.1-0.1-1.5-0.5
			c-0.8-0.7-0.9-1.6-0.5-2.5l0,0c-0.6,0.3-1.2,0.2-2-0.2c-1-0.5-1.7-0.9-2-1l0.7-0.8c0.3,0.1,0.9,0.4,1.8,0.9c1,0.6,1.6,0.5,2.2-0.2
			l0.6-0.7l-2.6-2.3l0.7-0.8L555.8,95.8z M552.5,94.2l-0.7,0.8c-0.7,0.8-0.7,1.7-0.1,2.3c0.8,0.7,1.6,0.4,2.3-0.4
			c0.3-0.4,0.5-0.7,0.6-0.8L552.5,94.2z"/>
		<path class="st11" d="M544.5,96.1l6.8,4.7l-0.9,0.7l-3.3-2.3c-0.9-0.6-1.7-1.2-2.5-1.8l0,0c0.4,0.9,0.7,1.8,1.1,2.9l1.3,3.9
			l-0.9,0.7l-2.6-8L544.5,96.1z"/>
		<path class="st11" d="M543.8,106.1l-3.9-6.8l0.9-0.5l3.9,6.8L543.8,106.1z"/>
		<path class="st11" d="M533.5,102.3c0.3-0.3,0.9-0.8,1.8-1.1c2.1-0.8,4.1-0.2,5.1,2.2c0.9,2.3,0,4.5-2.3,5.4
			c-0.9,0.4-1.6,0.4-1.9,0.4l-0.1-0.9c0.4,0,1,0,1.6-0.3c1.7-0.7,2.4-2.2,1.6-4.2c-0.7-1.8-2.2-2.5-4-1.8c-0.6,0.2-1.1,0.6-1.4,0.9
			L533.5,102.3z"/>
		<path class="st11" d="M529.2,106.7l3-0.6l-0.6-2.8l-3.3,0.7l-0.2-0.8l4.3-0.9l1.6,7.7l-4.2,0.9l-0.2-0.8l3.2-0.7l-0.5-2.4l-3,0.6
			L529.2,106.7z"/>
		<path class="st11" d="M527.3,104.5c-0.5-0.3-1.1-0.5-1.8-0.4c-1,0-1.6,0.6-1.6,1.4c0,0.7,0.5,1.1,1.5,1.5c1.3,0.4,2.1,1,2.2,2.1
			c0,1.2-0.9,2.2-2.5,2.2c-0.8,0-1.4-0.1-1.8-0.3l0.2-0.8c0.3,0.1,0.8,0.3,1.5,0.3c1.1,0,1.5-0.7,1.4-1.2c0-0.7-0.5-1.1-1.6-1.5
			c-1.4-0.5-2.1-1.1-2.1-2.2c0-1.2,0.8-2.3,2.7-2.4c0.8,0,1.6,0.2,2,0.4L527.3,104.5z"/>
		<path class="st11" d="M493.1,97l1.8-0.2l0,0l-1.4-1.1l0.6-0.5l1.1,1.4l0,0l0.3-1.8l0.8,0.3l-0.7,1.6l0,0l1.7-0.6l0.1,0.8l-1.8,0.2
			l0,0l1.3,1.1l-0.6,0.5l-1-1.4l0,0l-0.3,1.8l-0.8-0.2l0.7-1.6l0,0l-1.7,0.6L493.1,97z"/>
		<path class="st11" d="M489.7,92.5l1.8,0.1l0,0l-1.2-1.3l0.7-0.5l0.8,1.6l0,0l0.5-1.7l0.8,0.4l-0.9,1.5l0,0l1.8-0.3l0,0.8l-1.8-0.1
			l0,0l1.2,1.3l-0.7,0.5l-0.8-1.5l0,0l-0.5,1.7l-0.7-0.3l0.9-1.5l0,0l-1.8,0.4L489.7,92.5z"/>
		<path class="st11" d="M487,87.5l1.8,0.3l0,0l-1-1.5l0.7-0.4l0.6,1.7l0,0l0.7-1.6l0.7,0.5l-1.1,1.4l0,0l1.8-0.1l-0.1,0.8l-1.8-0.3
			l0,0l1,1.4l-0.7,0.4l-0.6-1.6l0,0l-0.8,1.6l-0.7-0.4l1.1-1.4l0,0l-1.8,0.1L487,87.5z"/>
	</g>
	<g>
		<path class="st11" d="M523.8,115.9c-12.2,0-23.6-4.7-32.3-13.4c-8.6-8.6-13.4-20.1-13.4-32.3c0-12.2,4.7-23.6,13.4-32.3
			c8.6-8.6,20.1-13.4,32.3-13.4c12.2,0,23.6,4.7,32.3,13.4c8.6,8.6,13.4,20.1,13.4,32.3c0,12.2-4.7,23.6-13.4,32.3
			C547.5,111.2,536,115.9,523.8,115.9z M523.8,26.3c-24.3,0-44,19.7-44,44c0,24.3,19.7,44,44,44c24.3,0,44-19.7,44-44
			C567.8,46,548.1,26.3,523.8,26.3z"/>
	</g>
	<g>
		<path class="st11" d="M534.9,90.6L534.9,90.6c-1.1-0.1-1.6-0.9-1.8-1.4l-0.1-0.4l3.8-5.5L518.3,70c-13.7,15.8-15,16.1-15.4,16.2
			c-0.2,0.1-0.5,0.1-0.7,0.1c-1.4,0-2-1.3-2-2.1l0-0.3l13-17.6l-6.5-4.7c-0.1,0-0.1-0.1-0.2-0.2c-0.1-0.1-0.3-0.2-0.4-0.3
			c-2.4-1.9-3.2-4.8-1.8-6.6c0.7-0.8,1.7-1.3,2.9-1.3c1.3,0,2.7,0.5,3.9,1.5c0.1,0.1,0.3,0.2,0.4,0.3c0.1,0,0.1,0.1,0.2,0.1l0,0
			l6,5.2l13.9-16.4l0.3-0.1c0,0,0.2,0,0.5,0c0.6,0,1.2,0.2,1.6,0.6c0.3,0.3,0.6,0.8,0.5,1.6c0,0.4,0,1.7-12.1,18.5l17.2,15l4.3-4.8
			l0.4,0.1c0.5,0.1,1.4,0.4,1.7,1.4c0.1,0.4,0.3,0.9-3.1,6.2l0.6,0.5c0.3,0.3,0.5,0.6,0.6,1c0,0.4-0.1,0.8-0.3,1.1l-0.8,0.9
			c-0.3,0.4-0.7,0.6-1.2,0.6c-0.3,0-0.7-0.1-0.9-0.3l-0.6-0.4C535.9,90.6,535.3,90.6,534.9,90.6z M518,67.9L539,83l-4.1,5.9
			c0.5-0.3,1.9-1.6,4.8-4.6l0.5-0.5l1.7,1.2l0.7-0.8l-1.6-1.4l0.4-0.6c2.2-3.4,3-5,3.2-5.5l-4.7,5.2l-19.6-17l0.4-0.6
			c7.1-9.9,11.9-17.1,12.2-18.2c0-0.2,0-0.3-0.1-0.3c-0.1-0.1-0.2-0.1-0.3-0.1l-14.6,17.2l-7.2-6.3l-0.1,0l-0.1-0.1
			c-0.1-0.1-0.2-0.2-0.4-0.3c-0.9-0.7-2-1.1-2.9-1.1c-0.7,0-1.3,0.2-1.6,0.7c-0.8,1-0.1,3,1.5,4.3c0.1,0.1,0.3,0.2,0.4,0.3l0.1,0.1
			l0.1,0.1l7.8,5.6l-13.6,18.4c0,0.2,0.1,0.3,0.3,0.3c0.1,0,0.1,0,0.2,0c1-0.6,7-6.9,15.1-16.3L518,67.9z"/>
	</g>
</g>
</svg>
