<?xml version="1.0" encoding="utf-8"?>
<!-- Generator: Adobe Illustrator 20.1.0, SVG Export Plug-In . SVG Version: 6.00 Build 0)  -->
<svg version="1.1" id="Layer_1" xmlns="http://www.w3.org/2000/svg" xmlns:xlink="http://www.w3.org/1999/xlink" x="0px" y="0px"
	 viewBox="0 0 75.4 74" style="enable-background:new 0 0 75.4 74;" xml:space="preserve">
<style type="text/css">
	.st0{fill:#FFFFFF;}
</style>
<g>
	<path class="st0" d="M5.1,44.5l0.5,2c0.1,0.3,0.2,0.7,0.3,1l0.4,1L7,50.4l0.9,1.9l0.5,0.9l0.5,0.9l1.1,1.7c0.4,0.6,0.8,1.1,1.3,1.7
		c0.8,1.2,1.7,2,2.6,3l0.3,0.3l0.1,0.1l0.1,0.1l0.2,0.2l0.8,0.7c0.5,0.4,1,0.9,1.5,1.3c2.1,1.6,4.3,3,6.7,3.9
		c4.7,2.1,9.6,2.9,14.3,2.6c4.6-0.2,8.9-1.5,12.5-3.3s6.5-4.1,8.7-6.4s3.8-4.7,4.9-6.7c1.1-2,1.7-3.7,2.1-4.9
		c0.4-1.2,0.5-1.8,0.5-1.8s-0.2,0.6-0.6,1.8c-0.4,1.1-1.1,2.8-2.3,4.8c-1.2,2-2.8,4.2-5.1,6.4c-2.3,2.2-5.2,4.3-8.7,5.8
		c-3.5,1.6-7.6,2.5-12,2.5c-4.4,0.1-9-1-13.2-3.1c-2.1-1-4.1-2.4-6-3.9c-0.4-0.4-0.9-0.8-1.3-1.2L16.7,59l-0.2-0.2l-0.1-0.1l0,0
		l-0.3-0.4c-0.8-1-1.7-1.9-2.3-2.9c-0.3-0.5-0.7-1-1-1.5l-0.9-1.6l-0.4-0.8l-0.4-0.8L10.4,49l-0.6-1.8l-0.3-0.9
		c-0.1-0.3-0.1-0.6-0.2-0.9l-0.4-1.8c-0.1-0.6-0.1-1.2-0.2-1.8l-0.1-0.9c0-0.3,0-0.6,0-0.9v-1.8c0-0.6,0.1-1.2,0.1-1.8l0.1-0.9
		c0-0.3,0.1-0.6,0.1-0.9l0.3-1.8c0.1-0.6,0.3-1.2,0.5-1.7c0.3-1.2,0.8-2.3,1.2-3.4c1-2.2,2.1-4.2,3.6-6c0.4-0.5,0.7-0.9,1.1-1.4
		l1.2-1.2l0.6-0.6l0,0l0,0l0.2-0.2L18,18c0.5-0.4,0.9-0.8,1.4-1.2l0.3-0.3l0.3-0.2l0.7-0.4c0.4-0.3,0.9-0.6,1.3-0.9
		c0.5-0.3,1-0.5,1.4-0.8c0.5-0.3,0.9-0.5,1.4-0.7c1-0.4,1.9-0.9,2.9-1.2c0.5-0.2,1-0.3,1.5-0.5c0.5-0.1,1-0.2,1.5-0.3
		c4-0.8,7.8-0.8,11.3-0.1c3.4,0.7,6.4,2,8.8,3.5c1.2,0.7,2.2,1.6,3.2,2.3c0.9,0.8,1.7,1.6,2.4,2.3c0.4,0.4,0.8,0.9,1.1,1.3h-1.8l0,0
		c-2.2,0-4,1.8-4,4s1.8,4,4,4l14.9,0.1l0.5-15.7c0.1-2.2-1.6-4.1-3.8-4.2c-2.2-0.1-4.1,1.6-4.2,3.8L63,15.4
		c-0.4-0.4-0.8-0.9-1.3-1.4c-0.9-0.8-2-1.8-3.2-2.8c-1.3-0.9-2.6-1.9-4.2-2.7c-3.1-1.7-6.9-3.2-11.2-3.9C38.8,3.9,34,4.1,29.2,5.3
		c-0.6,0.2-1.2,0.3-1.8,0.5s-1.2,0.4-1.8,0.7c-1.2,0.4-2.3,1-3.5,1.6c-0.6,0.3-1.1,0.6-1.7,1c-0.6,0.3-1.1,0.7-1.7,1
		c-0.6,0.4-1.1,0.8-1.6,1.2l-0.8,0.6l-0.4,0.3l-0.3,0.3c-0.4,0.4-0.9,0.8-1.3,1.3L14,14.1l-0.3,0.3l-0.1,0.1
		c-0.2,0.2-0.1,0.1-0.1,0.1l0,0l-0.7,0.8c-0.4,0.5-0.9,1-1.3,1.5s-0.8,1.1-1.2,1.7c-1.6,2.2-2.8,4.7-3.9,7.3
		c-1.9,5.3-2.6,11-1.7,16.5C4.8,43.1,5,43.8,5.1,44.5z"/>
</g>
</svg>
