<?xml version="1.0" encoding="utf-8"?>
<!-- Generator: Adobe Illustrator 20.1.0, SVG Export Plug-In . SVG Version: 6.00 Build 0)  -->
<svg version="1.1" id="Layer_1" xmlns="http://www.w3.org/2000/svg" xmlns:xlink="http://www.w3.org/1999/xlink" x="0px" y="0px"
	 viewBox="0 0 189 185" style="enable-background:new 0 0 189 185;" xml:space="preserve">
<style type="text/css">
	.st0{fill:#FFFFFF;}
</style>
<g>
	<path class="st0" d="M183.5,74.5c-0.8-2.5-3.2-4.3-5.8-4.3h-57.5L100.3,9.7c-0.8-2.5-3.2-4.2-5.8-4.2c-2.6,0-5,1.7-5.8,4.2
		L68.8,70.2H11.3c-2.7,0-5,1.7-5.8,4.3c-0.8,2.5,0.1,5.3,2.3,6.8l46.5,33.1l-18.7,57.1c-0.8,2.5,0.1,5.3,2.2,6.8
		c1.1,0.8,2.3,1.2,3.6,1.2c1.2,0,2.5-0.4,3.5-1.1l49.6-35.3l49.6,35.3c2.2,1.5,5,1.5,7.2-0.1c2.1-1.6,3-4.3,2.2-6.8l-18.7-57.1
		l46.5-33.1C183.4,79.8,184.4,77,183.5,74.5z"/>
</g>
</svg>
