<?xml version="1.0" encoding="utf-8"?>
<!-- Generator: Adobe Illustrator 20.1.0, SVG Export Plug-In . SVG Version: 6.00 Build 0)  -->
<svg version="1.1" id="Layer_1" xmlns="http://www.w3.org/2000/svg" xmlns:xlink="http://www.w3.org/1999/xlink" x="0px" y="0px"
	 viewBox="0 0 100 100" style="enable-background:new 0 0 100 100;" xml:space="preserve">
<style type="text/css">
	.st0{fill:#D3D3D3;}
	.st1{font-family:'DayPosterBlack';}
	.st2{font-size:72px;}
</style>
<text transform="matrix(1 0 0 1 -2441.9998 131.8979)" class="st1 st2">A</text>
<text transform="matrix(1 0 0 1 -1945.9998 135.1479)" class="st1" style="font-size:150px;">A</text>
<rect x="-2500" y="75.9" class="st0" width="13.2" height="13.2"/>
<text transform="matrix(1 0 0 1 -2319.7317 131.8979)" class="st1 st2">B</text>
<text transform="matrix(1 0 0 1 -2198.5076 131.8979)" class="st1 st2">C</text>
<text transform="matrix(1 0 0 1 -2080.7395 131.8979)" class="st1 st2">D</text>
<text transform="matrix(1 0 0 1 -2438.5078 251.8981)" class="st1 st2">E</text>
<text transform="matrix(1 0 0 1 -2314.5476 251.8981)" class="st1 st2">F</text>
<text transform="matrix(1 0 0 1 -2201.3877 251.8979)" class="st1 st2">G</text>
<text transform="matrix(1 0 0 1 -2084.1953 251.8979)" class="st1 st2">H</text>
<text transform="matrix(1 0 0 1 -2427.2031 371.8981)" class="st1 st2">I</text>
<text transform="matrix(1 0 0 1 -2313.2512 371.8981)" class="st1 st2">J</text>
<text transform="matrix(1 0 0 1 -1782.5801 73.0758)" class="st1 st2">K</text>
<text transform="matrix(1 0 0 1 -1652.7881 73.0758)" class="st1 st2">L</text>
<text transform="matrix(1 0 0 1 -1545.3154 73.0758)" class="st1 st2">M</text>
<text transform="matrix(1 0 0 1 -1417.7559 73.0758)" class="st1 st2">N</text>
<text transform="matrix(1 0 0 1 -1301.6074 73.0758)" class="st1 st2">O</text>
<text transform="matrix(1 0 0 1 -1176.604 73.0758)" class="st1 st2">P</text>
<text transform="matrix(1 0 0 1 -1061.248 73.0758)" class="st1 st2">Q</text>
<text transform="matrix(1 0 0 1 -942.1475 73.0758)" class="st1 st2">R</text>
<text transform="matrix(1 0 0 1 -812.5723 73.0758)" class="st1 st2">S</text>
<text transform="matrix(1 0 0 1 -700.5278 73.0758)" class="st1 st2">T</text>
<text transform="matrix(1 0 0 1 -576.8916 73.0758)" class="st1 st2">U</text>
<text transform="matrix(1 0 0 1 -461.6797 73.0758)" class="st1 st2">V</text>
<text transform="matrix(1 0 0 1 -352.6235 73.0758)" class="st1 st2">W</text>
<text transform="matrix(1 0 0 1 -222.7959 73.0758)" class="st1 st2">X</text>
<text transform="matrix(1 0 0 1 -101.8232 73.0758)" class="st1 st2">Y</text>
<text transform="matrix(1 0 0 1 21.1641 73.0758)" class="st1 st2">Z</text>
</svg>
