<?xml version="1.0" encoding="utf-8"?>
<!-- Generator: Adobe Illustrator 20.1.0, SVG Export Plug-In . SVG Version: 6.00 Build 0)  -->
<svg version="1.1" id="Layer_1" xmlns="http://www.w3.org/2000/svg" xmlns:xlink="http://www.w3.org/1999/xlink" x="0px" y="0px"
	 viewBox="0 0 100 100" style="enable-background:new 0 0 100 100;" xml:space="preserve">
<style type="text/css">
	.st0{fill:#D3D3D3;}
	.st1{font-family:'DayPosterBlack';}
	.st2{font-size:72px;}
</style>
<text transform="matrix(1 0 0 1 -1721.9998 131.8979)" class="st1 st2">A</text>
<text transform="matrix(1 0 0 1 -1225.9998 135.1479)" class="st1" style="font-size:150px;">A</text>
<rect x="-1780" y="75.9" class="st0" width="13.2" height="13.2"/>
<text transform="matrix(1 0 0 1 -1599.7317 131.8979)" class="st1 st2">B</text>
<text transform="matrix(1 0 0 1 -1478.5076 131.8979)" class="st1 st2">C</text>
<text transform="matrix(1 0 0 1 -1360.7395 131.8979)" class="st1 st2">D</text>
<text transform="matrix(1 0 0 1 -1718.5078 251.8981)" class="st1 st2">E</text>
<text transform="matrix(1 0 0 1 -1594.5476 251.8981)" class="st1 st2">F</text>
<text transform="matrix(1 0 0 1 -1481.3877 251.8979)" class="st1 st2">G</text>
<text transform="matrix(1 0 0 1 -1364.1953 251.8979)" class="st1 st2">H</text>
<text transform="matrix(1 0 0 1 -1707.2031 371.8981)" class="st1 st2">I</text>
<text transform="matrix(1 0 0 1 -1593.2512 371.8981)" class="st1 st2">J</text>
<text transform="matrix(1 0 0 1 -1062.5801 73.0758)" class="st1 st2">K</text>
<text transform="matrix(1 0 0 1 -932.7881 73.0758)" class="st1 st2">L</text>
<text transform="matrix(1 0 0 1 -825.3154 73.0758)" class="st1 st2">M</text>
<text transform="matrix(1 0 0 1 -697.7559 73.0758)" class="st1 st2">N</text>
<text transform="matrix(1 0 0 1 -581.6074 73.0758)" class="st1 st2">O</text>
<text transform="matrix(1 0 0 1 -456.604 73.0758)" class="st1 st2">P</text>
<text transform="matrix(1 0 0 1 -341.248 73.0758)" class="st1 st2">Q</text>
<text transform="matrix(1 0 0 1 -222.1475 73.0758)" class="st1 st2">R</text>
<text transform="matrix(1 0 0 1 -92.5723 73.0758)" class="st1 st2">S</text>
<text transform="matrix(1 0 0 1 19.4722 73.0758)" class="st1 st2">T</text>
</svg>
