<?xml version="1.0" encoding="utf-8"?>
<!-- Generator: Adobe Illustrator 20.1.0, SVG Export Plug-In . SVG Version: 6.00 Build 0)  -->
<svg version="1.1" id="Layer_1" xmlns="http://www.w3.org/2000/svg" xmlns:xlink="http://www.w3.org/1999/xlink" x="0px" y="0px"
	 viewBox="0 0 100 100" style="enable-background:new 0 0 100 100;" xml:space="preserve">
<style type="text/css">
	.st0{fill:#D3D3D3;}
	.st1{font-family:'DayPosterBlack';}
	.st2{font-size:72px;}
</style>
<text transform="matrix(1 0 0 1 -881.9997 131.8979)" class="st1 st2">A</text>
<text transform="matrix(1 0 0 1 -385.9997 135.1479)" class="st1" style="font-size:150px;">A</text>
<rect x="-940" y="75.9" class="st0" width="13.2" height="13.2"/>
<text transform="matrix(1 0 0 1 -759.7317 131.8979)" class="st1 st2">B</text>
<text transform="matrix(1 0 0 1 -638.5076 131.8979)" class="st1 st2">C</text>
<text transform="matrix(1 0 0 1 -520.7395 131.8979)" class="st1 st2">D</text>
<text transform="matrix(1 0 0 1 -878.5078 251.8981)" class="st1 st2">E</text>
<text transform="matrix(1 0 0 1 -754.5476 251.8981)" class="st1 st2">F</text>
<text transform="matrix(1 0 0 1 -641.3877 251.8979)" class="st1 st2">G</text>
<text transform="matrix(1 0 0 1 -524.1953 251.8979)" class="st1 st2">H</text>
<text transform="matrix(1 0 0 1 -867.2031 371.8981)" class="st1 st2">I</text>
<text transform="matrix(1 0 0 1 -753.2512 371.8981)" class="st1 st2">J</text>
<text transform="matrix(1 0 0 1 -222.5801 73.0758)" class="st1 st2">K</text>
<text transform="matrix(1 0 0 1 -92.7881 73.0758)" class="st1 st2">L</text>
<text transform="matrix(1 0 0 1 14.6846 73.0758)" class="st1 st2">M</text>
</svg>
