<?xml version="1.0" encoding="utf-8"?>
<!-- Generator: Adobe Illustrator 20.1.0, SVG Export Plug-In . SVG Version: 6.00 Build 0)  -->
<svg version="1.1" id="Layer_1" xmlns="http://www.w3.org/2000/svg" xmlns:xlink="http://www.w3.org/1999/xlink" x="0px" y="0px"
	 viewBox="0 0 100 100" style="enable-background:new 0 0 100 100;" xml:space="preserve">
<style type="text/css">
	.st0{fill:#D3D3D3;}
	.st1{font-family:'DayPosterBlack';}
	.st2{font-size:72px;}
</style>
<text transform="matrix(1 0 0 1 -761.9997 131.8979)" class="st1 st2">A</text>
<text transform="matrix(1 0 0 1 -265.9997 135.1479)" class="st1" style="font-size:150px;">A</text>
<rect x="-820" y="75.9" class="st0" width="13.2" height="13.2"/>
<text transform="matrix(1 0 0 1 -639.7317 131.8979)" class="st1 st2">B</text>
<text transform="matrix(1 0 0 1 -518.5076 131.8979)" class="st1 st2">C</text>
<text transform="matrix(1 0 0 1 -400.7395 131.8979)" class="st1 st2">D</text>
<text transform="matrix(1 0 0 1 -758.5078 251.8981)" class="st1 st2">E</text>
<text transform="matrix(1 0 0 1 -634.5476 251.8981)" class="st1 st2">F</text>
<text transform="matrix(1 0 0 1 -521.3877 251.8979)" class="st1 st2">G</text>
<text transform="matrix(1 0 0 1 -404.1953 251.8979)" class="st1 st2">H</text>
<text transform="matrix(1 0 0 1 -747.2031 371.8981)" class="st1 st2">I</text>
<text transform="matrix(1 0 0 1 -633.2512 371.8981)" class="st1 st2">J</text>
<text transform="matrix(1 0 0 1 -102.5801 73.0758)" class="st1 st2">K</text>
<text transform="matrix(1 0 0 1 27.2119 73.0758)" class="st1 st2">L</text>
</svg>
